<svg width="580" height="400" xmlns="http://www.w3.org/2000/svg">
 <!-- Created with Method Draw - http://github.com/duopixel/Method-Draw/ -->
 <defs>
  <linearGradient y2="0" x2="0.960938" y1="1" x1="1" id="svg_25">
   <stop offset="0" stop-opacity="0.996094" stop-color="#ff3838"/>
   <stop offset="1" stop-opacity="0.992188" stop-color="#ffa13d"/>
  </linearGradient>
 </defs>
 <g>
  <title>background</title>
  <rect fill="#fff" id="canvas_background" height="402" width="582" y="-1" x="-1"/>
  <g display="none" overflow="visible" y="0" x="0" height="100%" width="100%" id="canvasGrid">
   <rect fill="url(#gridpattern)" stroke-width="0" y="0" x="0" height="100%" width="100%"/>
  </g>
 </g>
 <g>
  <title>Layer 1</title>
  <text font-weight="bold" font-style="italic" transform="translate(-199, 51) matrix(5.75926, 0, 0, 5.75926, -1120.81, -1210.99)" xml:space="preserve" text-anchor="start" font-family="'Courier New', Courier, monospace" font-size="24" id="svg_1" y="247.06093" x="157.844061" stroke-width="16" stroke="#009696" fill="#f4947a">dash</text>
  <rect rx="20" id="svg_17" height="133.509213" width="278.999988" y="127.521917" x="176.08114" stroke-width="9" stroke="#ffffff" fill="url(#svg_25)"/>
  <rect id="svg_10" height="1" width="0" y="276.449997" x="741.5" fill-opacity="null" stroke-opacity="null" stroke-width="10.5" stroke="#ffffff" fill="#1e3b4f"/>
  <rect id="svg_11" height="1" width="0" y="217.449997" x="567.5" fill-opacity="null" stroke-opacity="null" stroke-width="10.5" stroke="#ffffff" fill="#1e3b4f"/>
  <rect id="svg_18" height="0" width="1" y="231.449997" x="647.5" fill-opacity="null" stroke-opacity="null" stroke-width="0" stroke="#ffffff" fill="#262626"/>
  <rect rx="20" id="svg_20" height="133.509213" width="278.999988" y="98.521917" x="176.08114" stroke-width="9" stroke="#ffffff" fill="url(#svg_25)"/>
  <rect rx="20" id="svg_21" height="133.509213" width="278.999988" y="71.521917" x="176.08114" stroke-opacity="null" stroke-width="9" stroke="#ffffff" fill="url(#svg_25)"/>
  <text font-weight="bold" font-style="italic" transform="matrix(4.52735, 0, 0, 4.17493, -689.473, -798.153)" xml:space="preserve" text-anchor="start" font-family="Arvo, sans-serif" font-size="24" id="svg_4" y="233.17657" x="193.086273" stroke-width="0" stroke="#2f3f3f" fill="#b5ffff">dash</text>
 </g>
</svg>